<svg width="28" height="28" viewBox="0 0 28 28" fill="none" xmlns="http://www.w3.org/2000/svg">
<path d="M12.8333 23.3333C10.7847 23.3395 8.80863 22.5756 7.29694 21.193C5.78525 19.8104 4.8484 17.9102 4.6722 15.8691C4.49599 13.8281 5.09331 11.7954 6.34568 10.1742C7.59805 8.55299 9.41399 7.46166 11.4333 7.11668C18.0833 5.83334 19.8333 5.22668 22.1667 2.33334C23.3333 4.66668 24.5 7.21001 24.5 11.6667C24.5 18.0833 18.9233 23.3333 12.8333 23.3333Z" stroke="white" stroke-width="2.33333" stroke-linecap="round" stroke-linejoin="round"/>
<path d="M2.33334 24.5C2.33334 21 4.49167 18.2467 8.26 17.5C11.0833 16.94 14 15.1667 15.1667 14" stroke="white" stroke-width="2.33333" stroke-linecap="round" stroke-linejoin="round"/>
</svg>
